<svg xmlns="http://www.w3.org/2000/svg" width="18.841" height="24.8" viewBox="0 0 18.841 24.8"><defs><style>.a{fill:#666;}</style></defs><path class="a" d="M27.662,9.983s0,0,0,0V9.972a.186.186,0,0,0-.053-.123l-3.44-3.44a.185.185,0,0,0-.22-.03H9.012a.188.188,0,0,0-.188.188v24.4a.188.188,0,0,0,.188.188H27.478a.188.188,0,0,0,.188-.188V10.013A.19.19,0,0,0,27.662,9.983ZM24.225,7l2.829,2.829H24.225ZM27.29,30.782H9.2V6.754H23.85v3.259a.188.188,0,0,0,.188.188H27.29Z" transform="translate(-8.824 -6.356)"/><g transform="translate(5.174 16.151)"><rect class="a" width="8.597" height="0.269" transform="translate(0 5.379)"/><rect class="a" width="8.597" height="0.269" transform="translate(0 3.586)"/><rect class="a" width="8.597" height="0.269" transform="translate(0 1.793)"/><rect class="a" width="8.597" height="0.269" transform="translate(0 0)"/></g><path class="a" d="M68.606,46.181l.888-.888,0,0a1.823,1.823,0,0,0,2.333-2.395l-.811.811a.718.718,0,0,1-1-1l.811-.811a1.823,1.823,0,0,0-2.394,2.332l0,0-1.182,1.181a.74.74,0,0,0-.093.038l-3.223-3.222-.333.333,3.223,3.223a.723.723,0,0,0-.037.093l-3.2,3.2a.75.75,0,0,0,1.061,1.061l2.907-2.907,2.907,2.907a.743.743,0,1,0,1.05-1.05Z" transform="translate(-58.195 -36.05)"/></svg>