<svg xmlns="http://www.w3.org/2000/svg" width="24" height="24" viewBox="0 0 24 24"><defs><style>.a{fill:#666;}</style></defs><path class="a" d="M17.861,9.739a1.909,1.909,0,1,0,1.887,1.909A1.9,1.9,0,0,0,17.861,9.739Zm0,3.229a1.32,1.32,0,1,1,1.3-1.32A1.31,1.31,0,0,1,17.861,12.968Z" transform="translate(-5.704 0.346)"/><path class="a" d="M16.685,6.843a3.614,3.614,0,1,0,3.568,3.614A3.595,3.595,0,0,0,16.685,6.843Zm0,6.638a3.026,3.026,0,1,1,2.979-3.025A3.006,3.006,0,0,1,16.685,13.481Z" transform="translate(-4.529 1.537)"/><path class="a" d="M18.319,4.844l1.417-1.757L17.887,1.211l-1.813,1.5a4.98,4.98,0,0,0-.876-.33l-.237-2.4H12.332l-.237,2.4a5.02,5.02,0,0,0-.876.33l-1.813-1.5L7.557,3.087,8.974,4.844a5.2,5.2,0,0,0-.425.99l-2.206.224V8.707l2.21.224a5.249,5.249,0,0,0,.422.988L7.557,11.678l1.849,1.876,1.813-1.5a5.033,5.033,0,0,0,.876.331l.237,2.4h2.629l.237-2.4a5.08,5.08,0,0,0,.876-.331l1.813,1.5,1.849-1.876L18.318,9.92a5.2,5.2,0,0,0,.423-.988l2.21-.224V6.058l-2.206-.224A5.249,5.249,0,0,0,18.319,4.844Zm2.063,3.349L18.3,8.4l-.051.189a4.657,4.657,0,0,1-.516,1.2l-.1.171,1.348,1.672-1.127,1.142-1.7-1.412-.168.09a4.453,4.453,0,0,1-1.107.416l-.2.046-.226,2.291h-1.6l-.226-2.291-.2-.046a4.453,4.453,0,0,1-1.107-.416l-.168-.09-1.7,1.412L8.319,11.641,9.667,9.969l-.1-.171a4.676,4.676,0,0,1-.515-1.205L9,8.4,6.912,8.193V6.573l2.081-.211.051-.19a4.665,4.665,0,0,1,.518-1.206l.1-.171L8.318,3.126,9.445,1.983l1.7,1.412.169-.089A4.438,4.438,0,0,1,12.42,2.89l.2-.046L12.847.553h1.6l.226,2.292.2.046a4.456,4.456,0,0,1,1.106.415l.169.089,1.7-1.412,1.127,1.143L17.626,4.8l.1.171a4.6,4.6,0,0,1,.517,1.206l.051.19,2.081.211V8.193Z" transform="translate(-1.486 4.611)"/><path class="a" d="M1.314,22.687H21.077V24L24,22.313l-2.923-1.688v1.312H2.064V2.923H3.375L1.688,0,0,2.923H1.314Z"/></svg>