<svg xmlns="http://www.w3.org/2000/svg" width="40" height="37.502" viewBox="0 0 40 37.502"><defs><style>.a{fill:#eceff1;}.b{fill:#388e3c;}.c{fill:#2e7d32;}.d{fill:#fafafa;}</style></defs><path class="a" d="M275.2,107.271H257.28a1.26,1.26,0,0,1-1.28-1.239V81.25a1.26,1.26,0,0,1,1.28-1.239H275.2a1.26,1.26,0,0,1,1.28,1.239v24.782A1.26,1.26,0,0,1,275.2,107.271Z" transform="translate(-236.479 -74.89)"/><g transform="translate(19.521 9.792)"><path class="b" d="M262.4,146.571h-5.12a1.28,1.28,0,1,1,0-2.56h5.12a1.28,1.28,0,0,1,0,2.56Z" transform="translate(-256 -144.011)"/><path class="b" d="M262.4,210.571h-5.12a1.28,1.28,0,1,1,0-2.56h5.12a1.28,1.28,0,0,1,0,2.56Z" transform="translate(-256 -202.891)"/><path class="b" d="M262.4,274.571h-5.12a1.28,1.28,0,1,1,0-2.56h5.12a1.28,1.28,0,0,1,0,2.56Z" transform="translate(-256 -261.772)"/><path class="b" d="M262.4,338.571h-5.12a1.28,1.28,0,1,1,0-2.56h5.12a1.28,1.28,0,1,1,0,2.56Z" transform="translate(-256 -320.652)"/><path class="b" d="M387.84,146.571h-2.56a1.28,1.28,0,0,1,0-2.56h2.56a1.28,1.28,0,0,1,0,2.56Z" transform="translate(-373.761 -144.011)"/><path class="b" d="M387.84,210.571h-2.56a1.28,1.28,0,0,1,0-2.56h2.56a1.28,1.28,0,0,1,0,2.56Z" transform="translate(-373.761 -202.891)"/><path class="b" d="M387.84,274.571h-2.56a1.28,1.28,0,0,1,0-2.56h2.56a1.28,1.28,0,0,1,0,2.56Z" transform="translate(-373.761 -261.772)"/><path class="b" d="M387.84,338.571h-2.56a1.28,1.28,0,1,1,0-2.56h2.56a1.28,1.28,0,1,1,0,2.56Z" transform="translate(-373.761 -320.652)"/></g><path class="c" d="M22.575,16.279a1.28,1.28,0,0,0-1.052-.265L1.044,19.764A1.255,1.255,0,0,0,0,20.991v27.5a1.257,1.257,0,0,0,1.044,1.227l20.479,3.75a1.232,1.232,0,0,0,.236.022,1.293,1.293,0,0,0,.817-.287,1.239,1.239,0,0,0,.463-.962v-35A1.235,1.235,0,0,0,22.575,16.279Z" transform="translate(0 -15.989)"/><path class="d" d="M91.187,171.982l-4.047-4.626,4.093-5.263a1.28,1.28,0,1,0-2.02-1.574l-3.791,4.874-3.195-3.65a1.279,1.279,0,1,0-1.925,1.684l3.52,4.024-3.568,4.587a1.281,1.281,0,0,0,2.022,1.572l3.264-4.2,3.722,4.252a1.278,1.278,0,1,0,1.925-1.682Z" transform="translate(-73.793 -148.93)"/></svg>