<svg xmlns="http://www.w3.org/2000/svg" width="18.197" height="20" viewBox="0 0 18.197 20"><defs><style>.a{fill:#01579b;}</style></defs><path class="a" d="M-490.5,508.5v20h6.066v-3h6.066v3h6.066v-20Zm4.853,13h-2.426v-2h2.426Zm0-3h-2.426v-2h2.426Zm0-3h-2.426v-2h2.426Zm0-3h-2.426v-2h2.426Zm3.639,9h-2.426v-2h2.426Zm0-3h-2.426v-2h2.426Zm0-3h-2.426v-2h2.426Zm0-3h-2.426v-2h2.426Zm3.639,9h-2.426v-2h2.426Zm0-3h-2.426v-2h2.426Zm0-3h-2.426v-2h2.426Zm0-3h-2.426v-2h2.426Zm3.639,9h-2.426v-2h2.426Zm0-3h-2.426v-2h2.426Zm0-3h-2.426v-2h2.426Zm0-3h-2.426v-2h2.426Z" transform="translate(490.5 -508.5)"/></svg>