<svg xmlns="http://www.w3.org/2000/svg" width="21.333" height="24" viewBox="0 0 21.333 24"><defs><style>.a{fill:#666;}</style></defs><path class="a" d="M21.333,4.667h-4a2.667,2.667,0,0,0-5.333,0H8a4,4,0,0,0-4,4V22a4,4,0,0,0,4,4H21.333a4,4,0,0,0,4-4V8.667a4,4,0,0,0-4-4ZM24,22a2.67,2.67,0,0,1-2.667,2.667H8A2.67,2.67,0,0,1,5.333,22V8.667A2.67,2.67,0,0,1,8,6H9.333a1.333,1.333,0,0,0,1.333,1.333h8A1.333,1.333,0,0,0,20,6h1.333A2.67,2.67,0,0,1,24,8.667Zm-2.667-8.667v4a.667.667,0,1,1-1.333,0V14.943l-4.2,4.2a.666.666,0,0,1-.943,0l-2.2-2.2L9.138,20.471a.667.667,0,1,1-.943-.943l4-4a.666.666,0,0,1,.943,0l2.2,2.2L19.057,14H16.667a.667.667,0,1,1,0-1.333h4a.666.666,0,0,1,.667.667Z" transform="translate(-4 -2)"/></svg>