<svg xmlns="http://www.w3.org/2000/svg" width="24" height="23.698" viewBox="0 0 24 23.698"><defs><style>.a{fill:#337ab7;}</style></defs><path class="a" d="M27.043,21.611A5.8,5.8,0,0,0,23.387,20.4a1.569,1.569,0,0,1-.919-.379L17.805,15.36l5.523-5.523a1.09,1.09,0,0,0,1.221-.225l2.27-2.27L25.267,5.79,23,8.059a1.091,1.091,0,0,0-.225,1.221L17.249,14.8l-4.36-4.36a1.562,1.562,0,0,1-.379-.922A5.877,5.877,0,0,0,11.3,5.868a5.8,5.8,0,0,0-3.654-1.21.7.7,0,0,0-.713.393.7.7,0,0,0,.231.781L8.753,7.42a.311.311,0,0,1,0,.439l-1,1a.321.321,0,0,1-.439,0L5.729,7.266a.8.8,0,0,0-.565-.273c-.3,0-.605.233-.608.755A5.877,5.877,0,0,0,5.765,11.4a5.8,5.8,0,0,0,3.657,1.21,1.568,1.568,0,0,1,.919.379l4.36,4.36-1.384,1.384-.718-.717a1.1,1.1,0,0,0-1.552,0L4.574,24.49a1.1,1.1,0,0,0,0,1.552l1.992,1.993a1.1,1.1,0,0,0,1.552,0l6.473-6.473a1.1,1.1,0,0,0,0-1.552l-.718-.717,1.384-1.384,4.662,4.662a1.562,1.562,0,0,1,.379.922,5.88,5.88,0,0,0,1.21,3.654,5.8,5.8,0,0,0,3.65,1.209h0a.649.649,0,0,0,.482-1.173l-1.588-1.589a.311.311,0,0,1,0-.44l1-1a.321.321,0,0,1,.44,0l1.589,1.589a.8.8,0,0,0,.565.273c.3,0,.605-.233.608-.755A5.878,5.878,0,0,0,27.043,21.611Zm-1.886,6.352Z" transform="translate(-4.253 -4.658)"/></svg>