<svg xmlns="http://www.w3.org/2000/svg" width="100" height="59.371" viewBox="0 0 100 59.371"><defs><style>.a{fill:#85a4be;}</style></defs><g transform="translate(0 -21.669)"><g transform="translate(0 21.669)"><path class="a" d="M79.887,42.391a4.911,4.911,0,0,0-2.676.748l.449,1.179a3.319,3.319,0,0,1,1.889-.58c1.178.019,1.776.654,1.776,1.608a4.12,4.12,0,0,1-1.309,2.562,4.287,4.287,0,0,0-1.16,3.235l.038.486h1.458l-.02-.486A3.693,3.693,0,0,1,81.4,48.394a5.062,5.062,0,0,0,1.609-3.254C83.01,43.718,82.036,42.391,79.887,42.391Z" transform="translate(-5.103 -23.186)"/><path class="a" d="M79.6,53.068a1.17,1.17,0,0,0-.018,2.337,1.17,1.17,0,0,0,.018-2.337Z" transform="translate(-5.01 -23.707)"/><path class="a" d="M99.99,23.62a1.865,1.865,0,0,0-2.632-1.787H85.839a1.875,1.875,0,0,0,0,3.75h7.688L82.35,37.092A12.876,12.876,0,0,0,64.593,55.375l-3.627,3.734-9.338-5.9a1.875,1.875,0,0,0-2.652.7L37.613,75,29.2,57.118a1.873,1.873,0,0,0-2.341-.962L1.231,65.531a1.874,1.874,0,0,0,1.289,3.52l24.014-8.786,9.269,19.7a1.871,1.871,0,0,0,1.646,1.075H37.5a1.875,1.875,0,0,0,1.651-.987l12.172-22.6,8.926,5.643a1.876,1.876,0,0,0,2.347-.278l4.687-4.825A12.876,12.876,0,0,0,85.04,39.7L96.25,28.161v7.83a1.875,1.875,0,0,0,3.75,0V23.708C100,23.678,99.992,23.649,99.99,23.62Zm-25.3,33.126A9.142,9.142,0,1,1,83.829,47.6,9.141,9.141,0,0,1,74.688,56.746Z" transform="translate(0 -21.669)"/></g></g></svg>